<svg xmlns="http://www.w3.org/2000/svg" viewBox="0 0 24 24" fill="none" stroke="currentColor" stroke-width="2" stroke-linecap="round" stroke-linejoin="round">
  <!-- Corpo do carro simplificado -->
  <path d="M7 17m-2 0a2 2 0 1 0 4 0a2 2 0 1 0-4 0" fill="none" stroke="currentColor" stroke-width="2"/>
  <path d="M17 17m-2 0a2 2 0 1 0 4 0a2 2 0 1 0-4 0" fill="none" stroke="currentColor" stroke-width="2"/>

  <!-- Estrutura do carro -->
  <path d="M5 17h-2v-6l2-5h9l4 5h1a2 2 0 0 1 2 2v4h-2" fill="none" stroke="currentColor" stroke-width="2"/>

  <!-- Janelas -->
  <path d="M16 12h2.5" stroke="currentColor" stroke-width="2"/>
  <path d="M7 8l4-3h2l3 3" fill="none" stroke="currentColor" stroke-width="2"/>

  <!-- Linhas de produção/automação -->
  <line x1="12" y1="2" x2="12" y2="4" stroke="currentColor" stroke-width="1.5" opacity="0.6"/>
  <line x1="8" y1="3" x2="9" y2="4.5" stroke="currentColor" stroke-width="1.5" opacity="0.6"/>
  <line x1="16" y1="3" x2="15" y2="4.5" stroke="currentColor" stroke-width="1.5" opacity="0.6"/>
</svg>
