<svg height="512" viewBox="0 0 512 512" width="512" xmlns="http://www.w3.org/2000/svg"><g id="Layer_9" data-name="Layer 9"><path d="m310.81 311.2c-23.66-3.72-40.29-25.61-37.65-48.81a41.62 41.62 0 0 1 2.13-9.22c2.73-7.88-.08-17-6.84-22.68a174.36 174.36 0 0 0 -48-29.42 18.63 18.63 0 0 0 -22.12 5.93 41.16 41.16 0 0 1 -58.55 7.31 40.4 40.4 0 0 1 -7.06-7.31 18.63 18.63 0 0 0 -22.09-5.93 174 174 0 0 0 -44.69 26.58c-7.1 5.77-10.07 15.22-7.18 23.36 8.06 21.39-2.82 46.46-24.94 55.6a45 45 0 0 1 -12.34 3.17 21.21 21.21 0 0 0 -18.15 16.22 136.26 136.26 0 0 0 -1.06 54.71 21 21 0 0 0 18.23 16.8c23.67 2.49 41.27 23.41 39.76 46.69a41.25 41.25 0 0 1 -3.26 13.6c-3.5 8.08-.79 17.89 6.44 23.86a175.2 175.2 0 0 0 47.58 29 20.87 20.87 0 0 0 6.72 1.38 18.49 18.49 0 0 0 15.78-8.3 41.06 41.06 0 0 1 67.57-1.15 18.55 18.55 0 0 0 22.91 6.17 178.24 178.24 0 0 0 43.72-27.54c6.89-5.82 9.67-15.13 6.75-23.11-8.32-21.27 2.28-46.44 24.3-55.8a45.18 45.18 0 0 1 11.66-3.21 21.06 21.06 0 0 0 17.57-16.48 138.79 138.79 0 0 0 3.07-26.89 137.08 137.08 0 0 0 -3-28.36 20.87 20.87 0 0 0 -17.26-16.17zm-90.11 44.53a55.18 55.18 0 1 1 -55.18-55.17 55.47 55.47 0 0 1 55.18 55.17z"/><path d="m495.69 89.93c-19.07-3-32.48-20.64-30.34-39.34a32.63 32.63 0 0 1 1.71-7.43c2.2-6.35-.06-13.68-5.51-18.28a140.17 140.17 0 0 0 -38.72-23.71 15 15 0 0 0 -17.83 4.83 33.19 33.19 0 0 1 -47.19 5.89 33.05 33.05 0 0 1 -5.66-5.89 15 15 0 0 0 -17.8-4.78 139.93 139.93 0 0 0 -36 21.42c-5.72 4.65-8.12 12.27-5.79 18.83 6.5 17.23-2.27 37.44-20.1 44.81a36.64 36.64 0 0 1 -9.95 2.56 17.08 17.08 0 0 0 -14.62 13 109.7 109.7 0 0 0 -.86 44.1 17 17 0 0 0 14.7 13.54c19.07 2 33.26 18.88 32 37.65a33.36 33.36 0 0 1 -2.6 11c-2.82 6.52-.63 14.42 5.2 19.23a141.17 141.17 0 0 0 38.34 23.35 17 17 0 0 0 5.42 1.11 14.93 14.93 0 0 0 12.72-6.69 33.09 33.09 0 0 1 54.46-.93 15 15 0 0 0 18.41 5 143.87 143.87 0 0 0 35.26-22.2c5.55-4.69 7.79-12.2 5.43-18.63-6.7-17.13 1.84-37.42 19.59-45a36.66 36.66 0 0 1 9.4-2.59 17 17 0 0 0 14.17-13.28 111.67 111.67 0 0 0 2.47-21.68 110.94 110.94 0 0 0 -2.4-22.82 16.84 16.84 0 0 0 -13.91-13zm-72.63 35.89a44.47 44.47 0 1 1 -44.47-44.47 44.7 44.7 0 0 1 44.47 44.47z"/><path d="m508.05 372.9a23.75 23.75 0 0 1 -3.4-32.47 22 22 0 0 1 3.53-3.56 11.17 11.17 0 0 0 3.22-12.13 92.18 92.18 0 0 0 -13.47-26.62 9.87 9.87 0 0 0 -11.61-3.47 21.78 21.78 0 0 1 -28.42-13 21.42 21.42 0 0 1 -1.15-5.25 9.87 9.87 0 0 0 -8.31-8.82 92.28 92.28 0 0 0 -27.54-.45 11.32 11.32 0 0 0 -9.73 8.54c-2.31 11.88-14.19 20.16-26.71 18.12a23.29 23.29 0 0 1 -6.44-2 11.24 11.24 0 0 0 -12.69 2.26 72.15 72.15 0 0 0 -15.69 24.37 11.12 11.12 0 0 0 3.55 12.64 23.6 23.6 0 0 1 4.93 32.11 21.69 21.69 0 0 1 -5.24 5.23 11 11 0 0 0 -3.73 12.6 92.82 92.82 0 0 0 13.4 26.29 11.13 11.13 0 0 0 2.64 2.49 9.8 9.8 0 0 0 9.42.65 21.76 21.76 0 0 1 30.79 18.27 9.82 9.82 0 0 0 8.56 9.15 94.46 94.46 0 0 0 27.37-.25 11.21 11.21 0 0 0 9.47-8.6c2.16-11.89 13.94-20.3 26.47-18.39a23.39 23.39 0 0 1 6.15 1.8 11.16 11.16 0 0 0 12.51-2.55 73.18 73.18 0 0 0 8.86-11.26 72.34 72.34 0 0 0 6.54-13.6 11.06 11.06 0 0 0 -3.28-12.1zm-53-5a29.23 29.23 0 1 1 -9.53-40.22 29.39 29.39 0 0 1 9.53 40.24z"/></g></svg>