<svg id="Layer_1" viewBox="0 0 64 64" xmlns="http://www.w3.org/2000/svg" data-name="Layer 1"><path d="m57.5 37.588a26.378 26.378 0 0 1 -4.667-.409 42.061 42.061 0 0 1 -5.205-1.39 28.343 28.343 0 0 0 -9.8-1.751 28.619 28.619 0 0 0 -8.764 1.538 15.856 15.856 0 1 0 30.645 1.915c-.737.058-1.476.097-2.209.097zm-21.814 7.282a3.785 3.785 0 1 1 3.784-3.785 3.789 3.789 0 0 1 -3.784 3.785zm7.468 7.047a3.574 3.574 0 1 1 3.574-3.574 3.578 3.578 0 0 1 -3.574 3.574zm9.24-4.726a4.291 4.291 0 1 1 4.291-4.291 4.3 4.3 0 0 1 -4.291 4.291z"/><path d="m48.23 33.881a39.816 39.816 0 0 0 4.961 1.329 24.792 24.792 0 0 0 6.028.307 15.829 15.829 0 0 0 -10.066-10.107 1 1 0 0 1 -.684-.949v-11.555h-8.634v11.555a1 1 0 0 1 -.684.949 15.831 15.831 0 0 0 -9.083 7.765 30.2 30.2 0 0 1 7.742-1.137 30.735 30.735 0 0 1 10.42 1.843z"/><path d="m37.053 7.872v2.875a.159.159 0 0 0 .159.159h13.88a.159.159 0 0 0 .159-.159v-2.875a.159.159 0 0 0 -.159-.159h-13.88a.159.159 0 0 0 -.159.159z"/><circle cx="43.154" cy="48.343" r="1.574"/><circle cx="35.686" cy="41.085" r="1.785"/><circle cx="52.394" cy="42.9" r="2.291"/><path d="m4.248 11.967h19.871a.248.248 0 0 0 .248-.248v-3.759a.248.248 0 0 0 -.248-.247h-19.871a.248.248 0 0 0 -.248.247v3.759a.248.248 0 0 0 .248.248z"/><path d="m7.811 49.915a6.373 6.373 0 0 0 12.746 0v-19.344a9.631 9.631 0 0 1 -3.739-1.006c-.3-.155-.626-.344-.972-.547a11.111 11.111 0 0 0 -4.053-1.63 10.857 10.857 0 0 0 -3.982.115zm1.856-16.255a1 1 0 0 1 2 0v1.012a1 1 0 0 1 -2 0zm0 5.007a1 1 0 0 1 2 0v6.133a1 1 0 0 1 -2 0z"/><path d="m12.125 25.416a12.971 12.971 0 0 1 4.735 1.878c.309.182.6.352.874.493a7.582 7.582 0 0 0 2.823.787v-14.607h-12.746v11.494a12.746 12.746 0 0 1 4.314-.045z"/></svg>