<svg id="Layer_1" height="512" viewBox="0 0 512 512" width="512" xmlns="http://www.w3.org/2000/svg" data-name="Layer 1"><path d="m241.67 146.468a7 7 0 0 1 7-7h92.58a7 7 0 1 1 0 14h-92.58a7 7 0 0 1 -7-7zm7 41.075h146.214a7 7 0 0 0 0-14h-146.212a7 7 0 1 0 0 14zm146.212 20.04h-146.21a7 7 0 0 0 0 14h146.212a7 7 0 1 0 0-14zm0 34.044h-146.21a7 7 0 1 0 0 14h146.212a7 7 0 1 0 0-14zm73.05 143.313v64.86a38.568 38.568 0 0 1 -38.523 38.524h-292.139a38.568 38.568 0 0 1 -38.523-38.524v-167.979l-96.337-83.314a7 7 0 0 1 -.716-9.876l140.57-162.539a7 7 0 0 1 9.877-.714l50.359 43.565 90.72-41.354a7 7 0 0 1 9.275 3.467l27.5 60.334h43.374a7.008 7.008 0 0 1 4.951 2.051l55.843 55.843a7.006 7.006 0 0 1 2.051 4.951v101.95a66.663 66.663 0 0 1 31.718 128.755zm-45.723-125.252v-98.451h-36.309a19.554 19.554 0 0 1 -19.531-19.531v-36.312h-145.022v140.726l26.324 25.735c5.966 5.837 10.672 9.967 16.931 9.967h127.745a66.97 66.97 0 0 1 29.862-22.134zm-41.839-117.982a5.533 5.533 0 0 0 5.527 5.527h26.409l-31.936-31.933zm-87.713-98.47-88.057 40.14a6.891 6.891 0 0 1 -.817.373l-93.892 42.8 44.609 97.872h32.178c8.706 0 15.371 3.963 20.664 8.36v-134.389a7 7 0 0 1 7-7h100.26zm-193.91 220.072v-6.008a32.933 32.933 0 0 1 32.911-32.881h7.454l-44.864-98.433a7 7 0 0 1 3.467-9.274l90.771-41.379-40.211-34.785-131.409 151.952zm355.182 125.008a66.56 66.56 0 0 1 -75.26-66.1 66.276 66.276 0 0 1 5.457-26.39h-119.526c-12.454 0-20.7-8.069-26.722-13.959l-28.247-27.617c-.128-.117-.252-.237-.371-.363l-5.621-5.5c-6.178-6.017-10.7-9.967-16.96-9.967h-55.021a18.914 18.914 0 0 0 -18.907 18.88v192.5a24.547 24.547 0 0 0 24.519 24.52h292.139a24.547 24.547 0 0 0 24.52-24.52zm44.079-66.1a52.668 52.668 0 1 0 -52.668 52.667 52.728 52.728 0 0 0 52.668-52.667zm-17.018-26.466a7 7 0 0 0 -9.9 0l-38.08 38.08-13.418-13.418a7 7 0 1 0 -9.9 9.9l18.369 18.368a7 7 0 0 0 9.9 0l43.029-43.03a7 7 0 0 0 0-9.9zm-64.535 134.863h-266.231a7 7 0 1 0 0 14h266.231a7 7 0 1 0 0-14zm-266.231-33.813h68.288a7 7 0 1 0 0-14h-68.288a7 7 0 1 0 0 14z"/></svg>