<svg id="Layer_1" viewBox="0 0 512 512" xmlns="http://www.w3.org/2000/svg" data-name="Layer 1"><g fill-rule="evenodd"><path d="m126.9 325.45-20.175-6.9-3.849 11.916c-11.849-.921-16.957-.631-28.6 1.745l-5.283-10.854-19.015 9.805 5.253 10.793c-8.813 7.971-12.364 12.286-18.692 22.333l-11.129-3.811-6.81 21.09 11.4 3.9c-.557 11.65-.048 17.389 2.43 28.778l-11.146 5.745 9.655 19.839 11.44-5.9c7.62 8.494 11.646 11.951 21.2 18.2l-4.242 13.133 20.175 6.9 4.348-13.462c11.053.459 16.235-.037 27.037-2.385l6.347 13.04 19.016-9.805-6.45-13.252c8.038-7.451 11.437-11.548 17.433-20.714l13.583 4.647 6.812-21.091-13.436-4.6a95.03 95.03 0 0 0 -1.524-27.5l12.274-6.329-9.656-19.839-11.787 6.079c-7.386-8.871-11.172-12.456-20.61-19.123l4-12.391zm7.181 47.541c11.374 23.371 2.414 52.251-20.867 64.245-23.4 12.052-51.5 2.052-62.927-21.433-11.375-23.371-2.413-52.25 20.867-64.244 23.395-12.053 51.496-2.052 62.926 21.432z"/><path d="m472.605 141a29.476 29.476 0 0 0 18.149-12.333c9.453-13.821 6.427-33.171-7.211-43.055a29.018 29.018 0 0 0 -40.734 6.725 31.466 31.466 0 0 0 -5.64 23.085 7.667 7.667 0 0 1 -1.377 5.578l-89.276 130.523c-5.2 7.623-32.083.168-39.624 32.008 2.434-3.559 4.416-7.839 9.493-7.76l31.487.524a7.686 7.686 0 0 1 7.464 5.062l11.116 30.391c1.984 4.863-1.693 8.6-4.253 12.343 25.784-17.446 11.344-42.491 15.889-49.152l89.39-130.685a7.663 7.663 0 0 1 5.127-3.254zm15.27-33.876a22.044 22.044 0 0 1 -17.63 25.467c-11.935 2.131-23.055-6.189-25.051-18.02-1.725-10.232 7.3-23.624 17.631-25.468a21.711 21.711 0 0 1 25.05 18.019z"/><path d="m125.291 50.924a7.69 7.69 0 0 1 14.326 5.6l-30.237 76.776a7.69 7.69 0 0 1 -14.326-5.6z"/><path d="m23.474 100.592a7.7 7.7 0 1 1 0-15.41h52.317a7.7 7.7 0 0 1 0 15.41z"/><path d="m470.058 105.324a5.943 5.943 0 0 0 -4.585-1.054 6.653 6.653 0 0 0 -5.11 7.77c1.454 8.62 13.805 6.274 12.344-2.39a6.689 6.689 0 0 0 -2.649-4.326z"/><path d="m173.276 98.265 56.178-56.177a7.7 7.7 0 0 1 10.895 10.895l-61.625 61.625a7.7 7.7 0 0 1 -10.895 0l-24.582-24.582a7.7 7.7 0 1 1 10.895-10.895z"/><path d="m335.861 239.865 2.488-3.637c-62.015-7.5-96.655 67.3-57.861 113.067 23.969 28.277 65.713 31.4 93.363 6.571 20.723-18.606 28.023-48.295 19.035-74.5 4.769 22.782-5.513 46.575-26.056 57.907-5.583 3.081-21.781 9.05-27.732 4.989a7.689 7.689 0 0 1 -2.016-10.685l13.678-20-8.053-22.017-22.424-.372-13.572 19.841a7.689 7.689 0 0 1 -10.684 2.017c-6.023-4.111-5.92-22-5-28.334 3.364-23.228 21.423-41.846 44.834-44.847z"/><path d="m347.871 222.306 26.583-38.864c-2.231-.865-4.486-1.687-6.729-2.525l1.343-20.291a5.876 5.876 0 0 0 -5.157-6.38l-42.629-2.989a5.751 5.751 0 0 0 -5.881 5.467c-.444 6.467-.858 12.937-1.286 19.405-16.981 3.134-27.919 6.827-43.216 14.408-1.031-1.217-12.275-14.475-12.277-14.473a5.34 5.34 0 0 0 -7.47-.549l-32.266 28.985a6.268 6.268 0 0 0 -.551 8.561l11.725 13.835c-9.678 14.656-14.836 25.506-20.195 42.033-5.508-.386-13.082-.429-18.161-1.275a5.339 5.339 0 0 0 -3.924 1.388 6.041 6.041 0 0 0 -1.989 4.079l-2.9 43.851c-.068 1.02 4.264 6.317 5.157 6.379l18.638 1.307c3.433 17.1 7.158 27.93 14.923 43.537l-14.409 12.936a6.268 6.268 0 0 0 -.552 8.561l28.057 33.1a5.357 5.357 0 0 0 7.573.661c5.16-4.237 10.521-9.452 15.558-13.976 13.949 9.249 23.68 14.024 39.561 19.323l-1.428 21.574a5.876 5.876 0 0 0 5.157 6.379l42.63 2.989a5.751 5.751 0 0 0 5.881-5.467c.524-7.564 1-15.135 1.5-22.7 15.859-3.523 25.671-7.116 40.121-14.5 3.14 3.7 14.543 19.374 18.779 19.671a5.353 5.353 0 0 0 3.844-1.256c10.721-8.811 21.813-19.593 32.267-28.981a6.27 6.27 0 0 0 .551-8.562l-15.07-17.778a161.437 161.437 0 0 0 18.57-38.437l23.162 1.624a5.751 5.751 0 0 0 5.881-5.467l2.9-43.851a5.877 5.877 0 0 0 -5.158-6.38l-22.6-1.584a158.919 158.919 0 0 0 -12.944-41.48l16.391-14.72a6.269 6.269 0 0 0 .552-8.561l-13.828-16.314-41.587 60.8a84.946 84.946 0 0 1 6.87 19.023c6.906 29.854-2.615 61.76-25.7 82.487-34.114 30.629-85.807 26.828-115.393-8.076-46.159-54.459-7.564-143.619 66.837-138.7a80.334 80.334 0 0 1 12.289 1.773z"/><path d="m120.236 379.733c-7.662-15.74-26.294-22.621-42.04-14.51-15.877 8.177-21.796 27.962-14.065 43.839 7.661 15.74 26.294 22.622 42.04 14.51 15.877-8.18 21.792-27.962 14.065-43.839z"/></g></svg>