<?xml version="1.0" encoding="iso-8859-1"?>
<!-- Generator: Adobe Illustrator 19.0.0, SVG Export Plug-In . SVG Version: 6.00 Build 0)  -->
<svg version="1.1" id="Layer_1" xmlns="http://www.w3.org/2000/svg" xmlns:xlink="http://www.w3.org/1999/xlink" x="0px" y="0px"
	 viewBox="0 0 512 512" style="enable-background:new 0 0 512 512;" xml:space="preserve">
<g>
	<g>
		<path d="M153.6,375.467c-5.12,0-8.533,3.413-8.533,8.533s3.413,8.533,8.533,8.533c5.12,0,8.533-3.413,8.533-8.533
			S158.72,375.467,153.6,375.467z"/>
	</g>
</g>
<g>
	<g>
		<path d="M221.867,375.467c-5.12,0-8.533,3.413-8.533,8.533s3.413,8.533,8.533,8.533S230.4,389.12,230.4,384
			S226.987,375.467,221.867,375.467z"/>
	</g>
</g>
<g>
	<g>
		<path d="M85.333,375.467c-5.12,0-8.533,3.413-8.533,8.533s3.413,8.533,8.533,8.533c5.12,0,8.533-3.413,8.533-8.533
			S90.453,375.467,85.333,375.467z"/>
	</g>
</g>
<g>
	<g>
		<path d="M290.133,375.467c-5.12,0-8.533,3.413-8.533,8.533s3.413,8.533,8.533,8.533s8.533-3.413,8.533-8.533
			S295.253,375.467,290.133,375.467z"/>
	</g>
</g>
<g>
	<g>
		<path d="M358.4,375.467c-5.12,0-8.533,3.413-8.533,8.533s3.413,8.533,8.533,8.533s8.533-3.413,8.533-8.533
			S363.52,375.467,358.4,375.467z"/>
	</g>
</g>
<g>
	<g>
		<path d="M426.667,375.467c-5.12,0-8.533,3.413-8.533,8.533s3.413,8.533,8.533,8.533S435.2,389.12,435.2,384
			S431.787,375.467,426.667,375.467z"/>
	</g>
</g>
<g>
	<g>
		<path d="M256,179.2c-5.12,0-8.533,3.413-8.533,8.533s3.413,8.533,8.533,8.533s8.533-3.413,8.533-8.533S261.12,179.2,256,179.2z"/>
	</g>
</g>
<g>
	<g>
		<path d="M491.52,443.733c11.093,0,20.48-9.387,20.48-20.48v-79.36c0-10.24-7.68-18.773-17.067-19.627v-30.72
			c0-10.24-7.68-18.773-17.067-20.48V45.227c0-11.093-8.533-19.627-19.627-19.627h-28.16c-11.947,0-20.48,8.533-20.48,19.627V76.8
			H307.2V42.667c0-5.12-3.413-8.533-8.533-8.533h-34.133v-25.6C264.533,3.413,261.12,0,256,0H68.267
			c-5.12,0-8.533,3.413-8.533,8.533V25.6H53.76c-11.093,0-19.627,8.533-19.627,19.627v227.84
			c-9.387,1.707-17.067,10.24-17.067,20.48v30.72C7.68,325.973,0,334.507,0,343.893v79.36c0,11.093,9.387,20.48,20.48,20.48h5.12
			v51.2H8.533c-5.12,0-8.533,3.413-8.533,8.533S3.413,512,8.533,512h25.6h51.2h341.333h51.2h25.6c5.12,0,8.533-3.413,8.533-8.533
			s-3.413-8.533-8.533-8.533H486.4v-51.2H491.52z M307.2,93.867h102.4v25.6H307.2V93.867z M315.733,187.733
			c0-11.093-3.413-21.333-8.533-30.72v-20.48h102.4v136.533H102.4V136.533h102.4v20.48c-5.12,9.387-8.533,19.627-8.533,30.72
			c0,33.28,26.453,59.733,59.733,59.733C289.28,247.467,315.733,221.013,315.733,187.733z M102.4,119.467v-25.6h102.4v25.6H102.4z
			 M230.4,187.733c0-14.507,11.093-25.6,25.6-25.6c14.507,0,25.6,11.093,25.6,25.6s-11.093,25.6-25.6,25.6
			C241.493,213.333,230.4,202.24,230.4,187.733z M290.133,51.2v34.133V128v11.093c0,0,0,0-0.853,0
			c-1.707-1.707-18.773-9.387-34.133-9.387c-17.92,0-31.573,8.533-34.133,9.387c0,0,0,0-0.853,0V128V85.333V51.2H290.133z
			 M76.8,17.067h170.667v17.067h-34.133c-5.12,0-8.533,3.413-8.533,8.533V76.8H102.4V45.227c0-11.093-8.533-19.627-19.627-19.627
			H76.8V17.067z M76.8,494.933H42.667v-51.2H76.8V494.933z M59.733,384c0-14.507,11.093-25.6,25.6-25.6
			c14.507,0,25.6,11.093,25.6,25.6c0,14.507-11.093,25.6-25.6,25.6C70.827,409.6,59.733,398.507,59.733,384z M418.133,494.933
			H93.867v-51.2h324.267V494.933z M128,384c0-14.507,11.093-25.6,25.6-25.6c14.507,0,25.6,11.093,25.6,25.6
			c0,14.507-11.093,25.6-25.6,25.6C139.093,409.6,128,398.507,128,384z M196.267,384c0-14.507,11.093-25.6,25.6-25.6
			c14.507,0,25.6,11.093,25.6,25.6c0,14.507-11.093,25.6-25.6,25.6C207.36,409.6,196.267,398.507,196.267,384z M264.533,384
			c0-14.507,11.093-25.6,25.6-25.6c14.507,0,25.6,11.093,25.6,25.6c0,14.507-11.093,25.6-25.6,25.6
			C275.627,409.6,264.533,398.507,264.533,384z M332.8,384c0-14.507,11.093-25.6,25.6-25.6S384,369.493,384,384
			c0,14.507-11.093,25.6-25.6,25.6S332.8,398.507,332.8,384z M401.067,384c0-14.507,11.093-25.6,25.6-25.6s25.6,11.093,25.6,25.6
			c0,14.507-11.093,25.6-25.6,25.6S401.067,398.507,401.067,384z M469.333,494.933H435.2v-51.2h34.133V494.933z M477.867,324.267
			H34.133V294.4c0-2.56,1.707-4.267,4.267-4.267h64h307.2h64c2.56,0,4.267,1.707,4.267,4.267V324.267z"/>
	</g>
</g>
<g>
</g>
<g>
</g>
<g>
</g>
<g>
</g>
<g>
</g>
<g>
</g>
<g>
</g>
<g>
</g>
<g>
</g>
<g>
</g>
<g>
</g>
<g>
</g>
<g>
</g>
<g>
</g>
<g>
</g>
</svg>
