<svg width="450" height="104" viewBox="0 0 450 104" fill="none" xmlns="http://www.w3.org/2000/svg">
<path d="M5.63 97.53L6.77 94.97C8.19 96.11 10.44 96.92 12.62 96.92C15.38 96.92 16.54 95.93 16.54 94.62C16.54 90.8 6.01 93.3 6.01 86.72C6.01 83.86 8.29 81.43 13.15 81.43C15.28 81.43 17.5 81.99 19.05 83L18.01 85.56C16.42 84.62 14.67 84.17 13.12 84.17C10.39 84.17 9.27 85.23 9.27 86.58C9.27 90.35 19.78 87.9 19.78 94.4C19.78 97.24 17.48 99.67 12.62 99.67C9.86 99.67 7.1 98.81 5.63 97.54V97.53Z" fill="#BFAFB0"/>
<path d="M24.72 90.55C24.72 85.31 28.77 81.44 34.26 81.44C39.75 81.44 43.8 85.29 43.8 90.55C43.8 95.81 39.75 99.66 34.26 99.66C28.77 99.66 24.72 95.79 24.72 90.55ZM40.49 90.55C40.49 86.93 37.83 84.32 34.26 84.32C30.69 84.32 28.03 86.93 28.03 90.55C28.03 94.17 30.69 96.78 34.26 96.78C37.83 96.78 40.49 94.17 40.49 90.55Z" fill="#BFAFB0"/>
<path d="M50.24 81.69H53.53V96.63H62.8V99.41H50.24V81.69Z" fill="#BFAFB0"/>
<path d="M67.94 91.69V81.69H71.23V91.56C71.23 95.21 72.88 96.77 75.74 96.77C78.6 96.77 80.22 95.2 80.22 91.56V81.69H83.46V91.69C83.46 96.85 80.55 99.66 75.71 99.66C70.87 99.66 67.94 96.85 67.94 91.69Z" fill="#BFAFB0"/>
<path d="M94.27 84.47H88.4V81.69H103.44V84.47H97.57V99.41H94.28V84.47H94.27Z" fill="#BFAFB0"/>
<path d="M108.86 81.69H112.15V99.41H108.86V81.69Z" fill="#BFAFB0"/>
<path d="M118.61 90.55C118.61 85.31 122.66 81.44 128.15 81.44C133.64 81.44 137.69 85.29 137.69 90.55C137.69 95.81 133.64 99.66 128.15 99.66C122.66 99.66 118.61 95.79 118.61 90.55ZM134.38 90.55C134.38 86.93 131.72 84.32 128.15 84.32C124.58 84.32 121.92 86.93 121.92 90.55C121.92 94.17 124.58 96.78 128.15 96.78C131.72 96.78 134.38 94.17 134.38 90.55Z" fill="#BFAFB0"/>
<path d="M159.87 81.69V99.41H157.16L147.39 87.41V99.41H144.12V81.69H146.83L156.6 93.69V81.69H159.87Z" fill="#BFAFB0"/>
<path d="M166.08 97.53L167.22 94.97C168.64 96.11 170.89 96.92 173.07 96.92C175.83 96.92 176.99 95.93 176.99 94.62C176.99 90.8 166.46 93.3 166.46 86.72C166.46 83.86 168.74 81.43 173.6 81.43C175.73 81.43 177.95 81.99 179.5 83L178.46 85.56C176.87 84.62 175.12 84.17 173.57 84.17C170.84 84.17 169.72 85.23 169.72 86.58C169.72 90.35 180.23 87.9 180.23 94.4C180.23 97.24 177.93 99.67 173.07 99.67C170.31 99.67 167.55 98.81 166.08 97.54V97.53Z" fill="#BFAFB0"/>
<path d="M209.65 99.69L207.42 97.54C205.83 98.91 203.8 99.67 201.47 99.67C197.72 99.67 195.01 97.72 195.01 94.94C195.01 92.74 196.22 91.19 199.11 89.57C197.67 88.13 197.14 86.96 197.14 85.67C197.14 83.19 199.17 81.49 202.28 81.49C205.14 81.49 207.01 82.98 207.01 85.39C207.01 87.21 205.95 88.53 203.39 89.97L207.21 93.62C207.64 92.78 207.97 91.77 208.2 90.63L210.76 91.47C210.43 93.01 209.9 94.38 209.17 95.52L211.4 97.65L209.65 99.7V99.69ZM205.55 95.74L200.87 91.26C198.82 92.4 198.11 93.34 198.11 94.6C198.11 96.07 199.53 97.08 201.7 97.08C203.17 97.08 204.46 96.62 205.55 95.74ZM200.03 85.61C200.03 86.39 200.36 86.98 201.62 88.24C203.67 87.13 204.33 86.39 204.33 85.43C204.33 84.42 203.6 83.73 202.28 83.73C200.86 83.73 200.03 84.52 200.03 85.6V85.61Z" fill="#BFAFB0"/>
<path d="M240.39 96.65V99.41H227.1V81.69H240.04V84.45H230.39V89.06H238.95V91.77H230.39V96.66H240.39V96.65Z" fill="#BFAFB0"/>
<path d="M262.75 81.69V99.41H260.04L250.27 87.41V99.41H247V81.69H249.71L259.48 93.69V81.69H262.75Z" fill="#BFAFB0"/>
<path d="M282.55 90.35H285.66V97.41C283.81 98.9 281.23 99.66 278.72 99.66C273.23 99.66 269.18 95.84 269.18 90.55C269.18 85.26 273.23 81.44 278.77 81.44C281.73 81.44 284.21 82.43 285.88 84.33L283.8 86.35C282.41 84.96 280.81 84.33 278.91 84.33C275.14 84.33 272.48 86.89 272.48 90.56C272.48 94.23 275.14 96.79 278.89 96.79C280.16 96.79 281.4 96.54 282.53 95.88V90.36L282.55 90.35Z" fill="#BFAFB0"/>
<path d="M292.93 81.69H296.22V99.41H292.93V81.69Z" fill="#BFAFB0"/>
<path d="M319.69 81.69V99.41H316.98L307.21 87.41V99.41H303.94V81.69H306.65L316.42 93.69V81.69H319.69Z" fill="#BFAFB0"/>
<path d="M340.68 96.65V99.41H327.39V81.69H340.33V84.45H330.68V89.06H339.24V91.77H330.68V96.66H340.68V96.65Z" fill="#BFAFB0"/>
<path d="M360.58 96.65V99.41H347.29V81.69H360.23V84.45H350.58V89.06H359.14V91.77H350.58V96.66H360.58V96.65Z" fill="#BFAFB0"/>
<path d="M378.79 99.41L375.17 94.22C374.94 94.25 374.71 94.25 374.49 94.25H370.49V99.41H367.2V81.69H374.49C379.15 81.69 382.03 84.07 382.03 87.99C382.03 90.67 380.66 92.65 378.26 93.58L382.34 99.4H378.8L378.79 99.41ZM374.33 84.47H370.48V91.53H374.33C377.22 91.53 378.71 90.21 378.71 87.99C378.71 85.77 377.22 84.47 374.33 84.47Z" fill="#BFAFB0"/>
<path d="M388.64 81.69H391.93V99.41H388.64V81.69Z" fill="#BFAFB0"/>
<path d="M415.4 81.69V99.41H412.69L402.92 87.41V99.41H399.65V81.69H402.36L412.13 93.69V81.69H415.4Z" fill="#BFAFB0"/>
<path d="M435.2 90.35H438.31V97.41C436.46 98.9 433.88 99.66 431.37 99.66C425.88 99.66 421.83 95.84 421.83 90.55C421.83 85.26 425.88 81.44 431.42 81.44C434.38 81.44 436.86 82.43 438.53 84.33L436.45 86.35C435.06 84.96 433.46 84.33 431.56 84.33C427.79 84.33 425.13 86.89 425.13 90.56C425.13 94.23 427.79 96.79 431.54 96.79C432.81 96.79 434.05 96.54 435.18 95.88V90.36L435.2 90.35Z" fill="#BFAFB0"/>
<path d="M146.14 59.37H119.14L113.82 71.87H103.48L127.78 17.87H137.66L162.04 71.87H151.55L146.15 59.37H146.14ZM142.82 51.5L132.64 27.89L122.53 51.5H142.82Z" fill="#B07E09"/>
<path d="M165.74 17.86H175.77V71.86H165.74V17.86Z" fill="#B07E09"/>
<path d="M235.17 17.86V71.86H226.92L197.14 35.29V71.86H187.19V17.86H195.44L225.22 54.43V17.86H235.17Z" fill="#B07E09"/>
<path d="M257.47 26.35H239.57V17.86H285.4V26.35H267.5V71.87H257.47V26.35Z" fill="#B07E09"/>
<path d="M330.29 63.46V71.87H289.79V17.86H329.21V26.27H299.82V40.31H325.9V48.56H299.82V63.45H330.29V63.46Z" fill="#B07E09"/>
<path d="M334.23 44.87C334.23 28.75 346.57 17.1 363.16 17.1C371.95 17.1 379.52 20.26 384.53 26.13L378.05 32.22C374.12 27.98 369.26 25.89 363.62 25.89C352.43 25.89 344.33 33.76 344.33 44.87C344.33 55.98 352.43 63.85 363.62 63.85C369.25 63.85 374.11 61.77 378.05 57.45L384.53 63.62C379.52 69.48 371.95 72.65 363.08 72.65C346.57 72.65 334.23 61 334.23 44.88V44.87Z" fill="#B07E09"/>
<path d="M439 17.86V71.86H428.97V48.71H401.04V71.86H391.01V17.86H401.04V40.16H428.97V17.86H439Z" fill="#B07E09"/>
<path d="M40.41 4.35C-0.759997 8.9 6.64 61.02 6.64 61.02C12.41 75.42 20.87 72.39 20.87 72.39C20.87 61.18 20.88 49.98 20.89 38.77H20.91C21.27 27.57 30.47 18.6 41.77 18.6C53.07 18.6 62.64 27.95 62.64 39.47C62.64 42.51 61.7 45.68 61.7 45.68C60.1 50.84 56.88 54.05 55.25 55.48C55.36 60.89 55.47 66.31 55.58 71.72C87.58 69.52 81.58 -0.19 40.41 4.35Z" fill="#D3C3BB"/>
<path d="M70.78 4.35C29.6 -0.19 23.6 69.52 55.59 71.71C55.73 66.3 55.87 60.88 56.01 55.47C51.44 51.64 48.53 45.89 48.53 39.46C48.53 27.93 57.88 18.59 69.4 18.59C80.92 18.59 89.89 27.57 90.26 38.77H90.28C90.28 49.97 90.29 61.17 90.3 72.38C90.3 72.38 98.76 75.41 104.53 61.01C104.53 61.01 111.94 8.89 70.77 4.35H70.78Z" fill="#E2CFA4"/>
</svg>
