<svg height="512" viewBox="0 0 520 520" width="512" xmlns="http://www.w3.org/2000/svg"><g id="_30-Checked" data-name="30-Checked"><path d="m214.745 422.43a10 10 0 0 1 -8.624-4.938c-32.705-55.718-119.9-174.367-120.78-175.558a10 10 0 0 1 1.026-13.04l26.817-26.5a10 10 0 0 1 12.753-1.086l86.726 60.558c58.089-74.472 112.037-125.922 147.537-156.289 39.993-34.208 65.458-49.606 66.523-50.245a10 10 0 0 1 5.145-1.425h43.382a10 10 0 0 1 6.651 17.468c-123.175 109.711-257.132 343.653-258.47 346a10 10 0 0 1 -8.624 5.051z"/></g><g id="_26-Checked" data-name="26-Checked"><circle cx="214.835" cy="113.845" r="7.954"/><circle cx="214.835" cy="457.936" r="7.954"/><circle cx="42.976" cy="285.891" r="7.954"/><circle cx="386.694" cy="285.891" r="7.954"/><circle cx="93.18" cy="407.545" r="7.954"/><circle cx="93.312" cy="164.368" r="7.954"/><circle cx="336.358" cy="407.413" r="7.954"/><circle cx="65.839" cy="199.868" r="7.954"/><circle cx="363.831" cy="371.913" r="7.954"/><circle cx="128.905" cy="434.725" r="7.954"/><circle cx="170.306" cy="119.707" r="7.954"/><circle cx="259.364" cy="452.074" r="7.954"/><circle cx="48.832" cy="330.371" r="7.954"/><circle cx="380.838" cy="241.41" r="7.954"/><circle cx="65.839" cy="371.913" r="7.954"/><circle cx="300.764" cy="434.725" r="7.954"/><circle cx="128.905" cy="137.056" r="7.954"/><circle cx="259.364" cy="119.707" r="7.954"/><circle cx="170.306" cy="452.074" r="7.954"/><circle cx="380.838" cy="330.371" r="7.954"/><circle cx="48.832" cy="241.41" r="7.954"/></g></svg>