<svg id="Layer_1" enable-background="new 0 0 512 512" height="512" viewBox="0 0 512 512" width="512" xmlns="http://www.w3.org/2000/svg"><path clip-rule="evenodd" d="m71.851 370.45 33.418-92.099 77.363-26.763c7.14-2.469 12.257-.969 14.52 4.214l.908 3.01c.851 4.906-.96 10.809-8.781 13.715l-47.665 17.76c-1.411.531-2.512 1.66-2.992 3.095l-18.425 53.413c-1.371 4.049 2.693 7.837 6.641 6.209 15.498-6.397 28.363 1.246 39.51 9.308 13.932 10.07 21.222 30.22 20.324 55.717h-20.803c.983-21.312-6.759-30.897-13.748-35.21-14.811-9.12-39.359-3.161-70.99 17.238-.842.541-1.491 1.313-1.881 2.225l-24.199 55.844h-20.39zm-46.682 97.682h126.222v22.868h-126.222zm136.222-40.102v62.97h126.209v-62.97zm235.33-361.595v-45.435h90.11l-17.75 17.75c-2.742 2.742-2.735 7.2 0 9.935l17.75 17.75zm27.101 424.565h-126.222v-123.781h126.223v123.781zm-20.789-366.74c-2.121-5.931-6.472-9.929-8.659-11.039l-5.418 5.955v-98.176h-10v109.167l-52.007 57.162c-1.084 1.205-25.086 16.856-28.639 19.27-1.163.79-77.307 30.664-85.547 33.921-4.901 1.938-6.843 7.46-6.034 12.29l.903 2.94c2.502 5.498 8.541 6.942 16.74 3.908l61.841-22.887c3.325-1.238 6.85 1.305 6.726 4.859l-1.228 36.828c-.028.814-.249 1.599-.649 2.3l-77.899 137.272h21.848l56.959-95.462c.08-.127.164-.249.24-.367 10.63-14.712 38.173-16.001 51.263-14.623 2.54.273 4.468 2.413 4.468 4.972v44.669h22.44v-62.97c0-2.895-2.915-8.65-7.611-12.415-4.305-3.452-10.267-5.054-13.47-5.054h-4.948c-2.761 0-5-2.239-5-5v-62.368c0-1.251.47-2.451 1.308-3.372l38.296-41.976v193.155h10v-204.115l10.404-11.403c4.722-5.169 5.949-11.039 3.673-17.441zm-113.453 50.022c-18.16 0-32.938-14.783-32.938-32.938 0-18.174 14.778-32.953 32.938-32.953s32.939 14.778 32.939 32.953c0 18.155-14.779 32.938-32.939 32.938zm-141.179 70.547c18.16 0 32.939-14.778 32.939-32.939 0-18.16-14.779-32.938-32.939-32.938-18.17 0-32.939 14.778-32.939 32.938 0 18.161 14.769 32.939 32.939 32.939z" fill-rule="evenodd"/></svg>