<svg id="Layer_1" height="512" viewBox="0 0 512 512" width="512" xmlns="http://www.w3.org/2000/svg" data-name="Layer 1"><path d="m28.176 286.712c36.5 0 54.817 44.222 29.007 70.031a12.18 12.18 0 0 0 0 17.221l26.217 26.214a12.18 12.18 0 0 0 17.221 0c25.809-25.81 70.032-7.5 70.032 29.007a12.175 12.175 0 0 0 12.175 12.176h37.072a12.175 12.175 0 0 0 12.175-12.176c0-36.547 44.191-54.85 70.033-29.007a12.177 12.177 0 0 0 17.219 0l26.215-26.214a12.18 12.18 0 0 0 0-17.221c-25.81-25.809-7.5-70.031 29.008-70.031a12.176 12.176 0 0 0 12.176-12.176v-37.071a12.175 12.175 0 0 0 -12.176-12.175c-36.5 0-54.818-44.223-29.008-70.033a12.177 12.177 0 0 0 0-17.219l-26.215-26.214a12.175 12.175 0 0 0 -17.219 0c-25.81 25.81-70.033 7.494-70.033-29.009a12.174 12.174 0 0 0 -12.175-12.175h-37.075a12.174 12.174 0 0 0 -12.175 12.175c0 36.5-44.223 54.819-70.032 29.009a12.178 12.178 0 0 0 -17.221 0l-26.214 26.214a12.177 12.177 0 0 0 0 17.219c25.81 25.81 7.495 70.033-29.007 70.033a12.175 12.175 0 0 0 -12.176 12.175v37.071a12.176 12.176 0 0 0 12.176 12.176zm416.278 167.641-57.782-57.782h-43.944l12.709-12.707q.63-.63 1.206-1.293h32.928a6.98 6.98 0 0 1 4.949 2.051l59.832 59.832a27.664 27.664 0 1 1 -9.9 9.9zm-2.894-205.353a27.668 27.668 0 1 1 0 14h-40.839v-14zm-.895-205.332a27.66 27.66 0 1 1 13.687 23.878l-59.832 59.832a6.975 6.975 0 0 1 -4.949 2.05h-32.929q-.577-.662-1.206-1.291l-12.71-12.709h43.946l57.782-57.781a27.531 27.531 0 0 1 -3.789-13.98zm-239.3 149.75a62.583 62.583 0 1 1 -62.587 62.582 62.572 62.572 0 0 1 62.583-62.583zm0-28a90.583 90.583 0 1 1 -90.587 90.582 90.583 90.583 0 0 1 90.583-90.582z" fill-rule="evenodd"/></svg>