<svg id="Solid" height="512" viewBox="0 0 512 512" width="512" xmlns="http://www.w3.org/2000/svg"><g><path d="m464 376v-280h-112v280h-16v-224h-36.6865l-59.3135 59.3135v164.6865h-16v-100.32l-48-41.1431-48 41.1431v100.32h-16v-51.4707l-32-19.2-32 19.2v51.4707h-32v16h61.99a224.5257 224.5257 0 0 0 39.3762 40h55.2456a300.507 300.507 0 0 1 -22.6818-40h17.79a282.9447 282.9447 0 0 0 24.4365 40h127.6873a282.9447 282.9447 0 0 0 24.4362-40h17.79a300.507 300.507 0 0 1 -22.6817 40h55.2456a224.5257 224.5257 0 0 0 39.3761-40h61.99v-16zm-376 0h-16v-32h16zm72-48h-16v-40h16zm24 48h-16v-32h16zm24-48h-16v-40h16zm64 0h-16v-40h16zm0-56h-16v-40h16zm24 104h-16v-32h16zm24-48h-16v-40h16zm0-56h-16v-40h16zm0-56h-16v-40h16zm64 112h-16v-40h16zm0-56h-16v-40h16zm0-56h-16v-40h16zm0-56h-16v-40h16zm32 216h-16v-32h16zm0-48h-16v-40h16zm0-56h-16v-40h16zm0-56h-16v-40h16zm0-56h-16v-40h16zm32 168h-16v-40h16zm0-56h-16v-40h16zm0-56h-16v-40h16zm0-56h-16v-40h16z"/><path d="m448 64h-32v-32h-16v32h-32v16h80z"/><path d="m304.225 474.78a223.2746 223.2746 0 0 0 67.26-26.78h-43.67a284.7418 284.7418 0 0 1 -23.59 26.78z"/><path d="m204.804 448a260.7882 260.7882 0 0 0 31.4325 31.1343q9.8025.8613 19.7635.8657 9.9534 0 19.7635-.8657a260.7882 260.7882 0 0 0 31.4325-31.1343z"/><path d="m140.5148 448a223.2746 223.2746 0 0 0 67.26 26.78 284.7418 284.7418 0 0 1 -23.59-26.78z"/><path d="m149.1216 145.854 42.1584 35.1318 90.8418-98.4121a7.999 7.999 0 0 1 10.3159-1.23l12.9263 8.6176 5.4868-54.8642-52.2644 15.6793 9.8511 6.5674a8 8 0 0 1 1.5088 12.0078l-72 80a8.001 8.001 0 0 1 -11.0679.7944l-42.5784-35.4824-112.3 104.813v26.1134l106.5415-99.4389a8 8 0 0 1 10.5801-.2971z"/></g></svg>