<svg id="target" enable-background="new 0 0 300 300" height="512" viewBox="0 0 300 300" width="512" xmlns="http://www.w3.org/2000/svg"><g><circle cx="84" cy="164" r="4"/><circle cx="256" cy="172" r="4"/><path d="m176 240c-6.617 0-12 5.383-12 12s5.383 12 12 12 12-5.383 12-12-5.383-12-12-12zm0 16c-2.207 0-4-1.795-4-4s1.793-4 4-4 4 1.795 4 4-1.793 4-4 4z"/><path d="m205.023 138.619c1.148-1.326 1.301-3.25.367-4.738l-20-32c-.637-1.021-1.699-1.701-2.895-1.85l-32-4c-.328-.043-.664-.043-.992 0l-32 4c-1.195.148-2.258.828-2.895 1.85l-20 32c-.934 1.488-.781 3.412.367 4.738l52 60c.016.018.04.024.056.041.337.375.742.666 1.188.89.098.049.193.086.294.126.469.189.962.323 1.485.323s1.016-.134 1.485-.323c.101-.041.197-.077.294-.126.446-.224.852-.515 1.188-.89.016-.018.04-.023.056-.041zm-29.69 1.381-25.333 47.5-25.333-47.5zm-48.424-8 23.091-25.979 23.095 25.979zm59.091-14.055 8.785 14.055h-8.785zm-8 7.533-17.948-20.191 17.948 2.243zm-56 .004v-17.952l17.95-2.243zm-8 6.518h-8.785l8.785-14.055zm1.598 8 14.142 26.516-22.981-26.516zm68.804 0h8.839l-22.98 26.516z"/><path d="m44 84c2.211 0 4-1.791 4-4v-36h36c2.211 0 4-1.791 4-4s-1.789-4-4-4h-40c-2.211 0-4 1.791-4 4v40c0 2.209 1.789 4 4 4z"/><path d="m252 204c-2.211 0-4 1.791-4 4v36h-36c-2.211 0-4 1.791-4 4s1.789 4 4 4h40c2.211 0 4-1.791 4-4v-40c0-2.209-1.789-4-4-4z"/><path d="m84 244h-36v-36c0-2.209-1.789-4-4-4s-4 1.791-4 4v40c0 2.209 1.789 4 4 4h40c2.211 0 4-1.791 4-4s-1.789-4-4-4z"/><path d="m212 44h36v36c0 2.209 1.789 4 4 4s4-1.791 4-4v-40c0-2.209-1.789-4-4-4h-40c-2.211 0-4 1.791-4 4s1.789 4 4 4z"/><path d="m221.172 218.828c.781.781 1.805 1.172 2.828 1.172s2.047-.391 2.828-1.172c1.562-1.562 1.562-4.094 0-5.656l-6.685-6.685c14.825-16.622 23.857-38.515 23.857-62.487s-9.032-45.865-23.856-62.487l6.685-6.685c1.562-1.562 1.562-4.094 0-5.656s-4.094-1.562-5.656 0l-6.606 6.606c-16.855-15.959-39.579-25.778-64.567-25.778-23.972 0-45.865 9.032-62.487 23.856l-4.685-4.685c-1.562-1.562-4.094-1.562-5.656 0s-1.562 4.094 0 5.656l4.606 4.606c-15.959 16.855-25.778 39.579-25.778 64.567s9.819 47.712 25.778 64.565l-4.606 4.606c-1.562 1.562-1.562 4.094 0 5.656.781.782 1.805 1.173 2.828 1.173s2.047-.391 2.828-1.172l4.685-4.685c16.622 14.825 38.515 23.857 62.487 23.857 24.988 0 47.712-9.819 64.565-25.778zm-71.172 11.172c-21.766 0-41.608-8.192-56.772-21.571l5.601-5.601c1.562-1.562 1.562-4.094 0-5.656s-4.094-1.562-5.656 0l-5.696 5.696c-14.511-15.403-23.477-36.087-23.477-58.868s8.966-43.465 23.476-58.868l5.696 5.696c.781.781 1.805 1.172 2.828 1.172s2.047-.391 2.828-1.172c1.562-1.562 1.562-4.094 0-5.656l-5.601-5.601c15.165-13.379 35.007-21.571 56.773-21.571 22.782 0 43.465 8.966 58.868 23.476l-3.696 3.696c-1.562 1.562-1.562 4.094 0 5.656.781.781 1.805 1.172 2.828 1.172s2.047-.391 2.828-1.172l3.601-3.6c13.379 15.165 21.571 35.007 21.571 56.772s-8.192 41.607-21.571 56.772l-3.601-3.6c-1.562-1.562-4.094-1.562-5.656 0s-1.562 4.094 0 5.656l3.696 3.696c-15.403 14.51-36.086 23.476-58.868 23.476z"/></g></svg>