<svg id="Capa_1" enable-background="new 0 0 511.971 511.971" height="512" viewBox="0 0 511.971 511.971" width="512" xmlns="http://www.w3.org/2000/svg"><g><path d="m431.239 115.06h59.992v30h-59.992z" transform="matrix(.538 -.843 .843 .538 103.44 448.864)"/><path d="m334.435 67.917h59.931v30h-59.931z" transform="matrix(.321 -.947 .947 .321 169.005 401.483)"/><path d="m240.967 34.313h30v60h-30z"/><path d="m132.533 52.952h30v59.931h-30z" transform="matrix(.947 -.321 .321 .947 -18.799 51.691)"/><path d="m35.699 100.064h30v59.992h-30z" transform="matrix(.843 -.538 .538 .843 -62.014 47.708)"/><path d="m390.967 244.313c0 18.28-3.603 35.99-10.462 52.329.911-.032 1.825-.049 2.742-.049 20.033 0 38.867 7.801 53.033 21.967l15.014 15.014c22.729-18.005 43.278-38.238 60.677-59.593-39.416-45.276-91.23-86.254-148.063-110.812 17.556 23.241 27.059 51.44 27.059 81.144z"/><path d="m308.339 368.78c-16.361 6.872-34.089 10.484-52.373 10.484-35.998 0-69.856-13.975-95.338-39.352-25.576-25.471-39.662-59.422-39.662-95.599 0-29.74 9.529-57.974 27.13-81.235-7.047 3.058-14.099 6.404-21.154 10.046-44.112 22.777-87.448 55.809-126.942 101.189 63.476 73.126 158.848 135 255.967 135 19.62 0 39.341-2.52 58.82-7.16-4.663-10.487-6.866-21.921-6.448-33.373z"/><path d="m383.246 326.592c-6.83 0-13.425 1.515-19.408 4.379l-23.76-23.76c13.111-17.49 20.889-39.239 20.889-62.898 0-58.311-47.217-104.951-105-104.951-57.823 0-105 46.683-105 104.951 0 58.311 47.218 104.951 105 104.951 23.548 0 45.33-7.744 62.88-20.858l23.798 23.798c-7.967 16.724-5.045 37.381 8.782 51.209l74.246 74.246 63.639-63.64-74.246-74.246c-8.5-8.5-19.8-13.181-31.82-13.181zm-127.279-37.279c-24.813 0-45-20.187-45-45s20.187-45 45-45 45 20.187 45 45-20.187 45-45 45z"/><circle cx="255.967" cy="244.313" r="15"/></g></svg>